<?xml version="1.0" encoding="utf-8"?><!-- Uploaded to: SVG Repo, www.svgrepo.com, Generator: SVG Repo Mixer Tools -->
<svg fill="#000000" width="800px" height="800px" viewBox="0 0 1024 1024" xmlns="http://www.w3.org/2000/svg"><path d="M753.562 549.759c0 218.22-107.439 398.322-247.834 401.291-139.523-2.969-246.963-183.07-246.963-401.291 0-65.205 9.608-128.187 27.779-184.756 16.473-51.291 63.593-86.02 116.738-86.02h205.763c53.141 0 100.251 34.725 116.738 86.02 18.171 56.57 27.779 119.552 27.779 184.757zm-40.96 0c0-61.007-8.963-119.763-25.816-172.227-11.068-34.434-42.481-57.59-77.741-57.59H403.282c-35.263 0-66.683 23.158-77.74 57.586-16.853 52.467-25.817 111.223-25.817 172.23 0 198.793 94.95 357.958 206.003 360.34 111.924-2.382 206.874-161.547 206.874-360.34z"/><path d="M509.161 910.224v40.96h-6.001v-40.96c-.057 0 .034-.004.347-.021l.155-.009a50.805 50.805 0 012.917-.089c.704.014 1.29.042 2.081.089l.155.009c.313.018.404.021.347.021zm-2.582 40.833c-.702.001-.78.001-.417.021.373-.02.382-.021.417-.021zm-.587.031l-.178.01a43.342 43.342 0 01-2.654.086c-27.307 0-27.307-40.96 0-40.96h6.001c27.307 0 27.307 40.96 0 40.96-.915 0-1.622-.028-2.654-.086l-.178-.01-.168-.009-.169.009z"/><path d="M485.682 299.46v620.626h40.96V299.46zm-184.346 33.427c-68.823-12.443-131.941-42.462-184.764-86.954-8.651-7.287-21.571-6.18-28.858 2.471s-6.18 21.571 2.471 28.858c58.249 49.062 127.936 82.205 203.864 95.932 11.13 2.012 21.785-5.379 23.797-16.51s-5.379-21.785-16.51-23.797zm34.001 478.112c-83.243 15.051-159.65 51.391-223.496 105.181-8.65 7.288-9.755 20.208-2.467 28.858s20.208 9.755 28.858 2.467c58.42-49.218 128.255-82.433 204.393-96.199 11.13-2.012 18.522-12.667 16.51-23.797s-12.667-18.522-23.797-16.51zM92.16 585.514h180.275c11.311 0 20.48-9.169 20.48-20.48s-9.169-20.48-20.48-20.48H92.16c-11.311 0-20.48 9.169-20.48 20.48s9.169 20.48 20.48 20.48zm637.792-212.32c75.928-13.728 145.615-46.871 203.864-95.932 8.651-7.287 9.757-20.206 2.471-28.858s-20.206-9.757-28.858-2.471c-52.824 44.492-115.941 74.511-184.764 86.954-11.13 2.012-18.522 12.667-16.51 23.797s12.667 18.522 23.797 16.51zm-59.841 478.111c76.137 13.766 145.973 46.981 204.393 96.199 8.65 7.288 21.57 6.183 28.858-2.467s6.183-21.57-2.467-28.858c-63.846-53.79-140.253-90.13-223.496-105.181-11.13-2.012-21.785 5.379-23.797 16.51s5.379 21.785 16.51 23.797zM931.84 544.554H751.565c-11.311 0-20.48 9.169-20.48 20.48s9.169 20.48 20.48 20.48H931.84c11.311 0 20.48-9.169 20.48-20.48s-9.169-20.48-20.48-20.48z"/><path d="M366.066 305.896c-3.8-13.538-5.751-27.647-5.751-42.041 0-83.625 65.935-151.214 147.016-151.214s147.016 67.589 147.016 151.214c0 14.692-2.035 29.092-5.997 42.916l39.375 11.284c5.01-17.482 7.582-35.68 7.582-54.2 0-106.023-84.043-192.174-187.976-192.174s-187.976 86.151-187.976 192.174c0 18.144 2.466 35.977 7.275 53.109l39.436-11.069z"/></svg>